<svg width="150" height="59" viewBox="0 0 150 59" fill="none" xmlns="http://www.w3.org/2000/svg">
<path d="M11.0581 17.1112V46.4958L15.1681 45.9927V16.4443L11.0581 17.1112Z" fill="#F9F9F9"/>
<path d="M24.4619 19.2582C23.9159 18.603 23.0579 17.8834 21.8879 17.0995L19.3199 20.241C20.2619 20.7148 20.8439 21.1009 21.0779 21.3934C21.3059 21.6859 21.4199 22.072 21.4199 22.5459C21.4199 22.9612 21.1259 23.6281 20.5379 24.5349C19.9559 25.4416 19.4339 26.2431 18.9719 26.9392L21.2039 28.5304C22.8599 26.3835 23.9519 24.8742 24.4859 24.0084C25.0139 23.1426 25.2779 22.4172 25.2779 21.8322C25.2779 20.7733 25.0019 19.9134 24.4619 19.2582Z" fill="#F9F9F9"/>
<path d="M39.4679 43.4713C37.7279 43.4713 36.1979 43.056 34.8899 42.2253C33.5879 41.3887 32.6399 40.2655 32.0579 38.844L49.3499 33.3684C49.0919 31.6368 48.5039 30.1275 47.5799 28.8347C46.6619 27.5477 45.4919 26.5473 44.0699 25.8394C42.6479 25.1316 41.0699 24.7747 39.3239 24.7747C37.2599 24.7747 35.3699 25.2545 33.6599 26.2139C31.9439 27.1733 30.5879 28.4895 29.5919 30.1567C28.5899 31.8298 28.0859 33.6667 28.0859 35.685C28.0859 37.7032 28.5719 39.4816 29.5439 41.1372C30.5099 42.7869 31.8599 44.0973 33.5879 45.0567C35.3099 46.0161 37.2599 46.4958 39.4199 46.4958C41.1659 46.4958 42.8339 46.1682 44.4359 45.5071C46.0319 44.8461 47.4899 43.8808 48.8159 42.6231L47.5079 39.6045C45.1859 42.1843 42.5039 43.4713 39.4679 43.4713ZM31.4279 35.685C31.4279 34.2342 31.7759 32.9121 32.4719 31.7187C33.1679 30.5195 34.1099 29.5659 35.3039 28.8581C36.4979 28.1502 37.8239 27.7992 39.2759 27.7992C40.7279 27.7992 41.9579 28.1268 43.0559 28.7878C44.1479 29.4489 44.9279 30.3498 45.3779 31.4789L31.4279 35.8722V35.685Z" fill="#F9F9F9"/>
<path d="M65.232 28.2672V25.2486H59.034V18.6849L55.644 20.6681V40.3124C55.644 41.5701 55.896 42.6582 56.394 43.5708C56.898 44.4834 57.612 45.1796 58.548 45.671C59.484 46.1565 60.57 46.4022 61.794 46.4022C62.442 46.4022 63.078 46.3379 63.708 46.215C64.338 46.0863 64.848 45.9284 65.232 45.7412V42.6699C64.848 42.8571 64.362 43.0151 63.78 43.1438C63.198 43.2725 62.652 43.331 62.136 43.331C61.164 43.331 60.408 43.0502 59.856 42.4827C59.31 41.9153 59.034 41.1138 59.034 40.0725V28.2672H65.232Z" fill="#F9F9F9"/>
<path d="M90.0299 30.1567C89.0279 28.4895 87.6659 27.1733 85.9379 26.2139C84.2099 25.2545 82.2959 24.7747 80.2019 24.7747C78.1079 24.7747 76.1879 25.2545 74.4599 26.2139C72.7319 27.1733 71.3699 28.4895 70.3679 30.1567C69.3659 31.8298 68.8679 33.6492 68.8679 35.6382C68.8679 37.6272 69.3659 39.4465 70.3679 41.1138C71.3699 42.781 72.7319 44.0973 74.4599 45.0567C76.1879 46.0161 78.1019 46.4958 80.2019 46.4958C82.3019 46.4958 84.2099 46.0161 85.9379 45.0567C87.6659 44.0973 89.0279 42.781 90.0299 41.1138C91.0319 39.4465 91.5299 37.6213 91.5299 35.6382C91.5299 33.655 91.0319 31.8298 90.0299 30.1567ZM87.0059 39.6045C86.3099 40.7979 85.3619 41.7339 84.1679 42.4125C82.9739 43.0911 81.6539 43.4245 80.2019 43.4245C79.0139 43.4245 77.9099 43.2022 76.9019 42.7518C75.8939 42.7694 74.9459 42.1434 74.6099 41.1898C74.1419 40.7277 73.7399 40.1953 73.3919 39.6045C72.7019 38.4052 72.3539 37.0831 72.3539 35.6382C72.3539 34.1932 72.7019 32.8653 73.3919 31.6719C73.7099 31.1278 74.0759 30.6364 74.5019 30.1977C74.6879 28.782 76.1519 27.8928 77.5139 28.2847C78.3539 27.9922 79.2479 27.846 80.2019 27.846C81.6539 27.846 82.9739 28.1853 84.1679 28.8581C85.3619 29.5367 86.3099 30.4726 87.0059 31.6719C87.6239 32.7366 87.9659 33.9066 88.0259 35.1761C88.0259 35.2053 88.0259 35.2345 88.0259 35.2638C88.0379 35.3515 88.0379 35.4393 88.0319 35.527C88.0379 35.5621 88.0379 35.6031 88.0379 35.6382C88.0379 37.0831 87.6899 38.4052 86.9999 39.6045H87.0059Z" fill="#F9F9F9"/>
<path d="M97.344 25.5762V46.022H100.734V24.9152L97.344 25.5762Z" fill="#F9F9F9"/>
<path d="M97.344 19.0827V22.23L100.734 21.5807V18.4217L97.344 19.0827Z" fill="#F9F9F9"/>
<path d="M108.48 12.3552V46.022H111.87V11.6942L108.48 12.3552Z" fill="#F9F9F9"/>
<path d="M129.066 43.4713C127.32 43.4713 125.796 43.056 124.488 42.2253C123.18 41.3887 122.238 40.2655 121.656 38.844L138.942 33.3684C138.684 31.6368 138.096 30.1275 137.178 28.8347C136.26 27.5477 135.084 26.5473 133.668 25.8394C132.246 25.1316 130.662 24.7747 128.922 24.7747C126.852 24.7747 124.962 25.2545 123.252 26.2139C121.542 27.1733 120.186 28.4895 119.184 30.1567C118.182 31.8298 117.684 33.6667 117.684 35.685C117.684 37.7032 118.17 39.4816 119.136 41.1372C120.108 42.7869 121.452 44.0973 123.18 45.0567C124.908 46.0161 126.852 46.4958 129.018 46.4958C130.758 46.4958 132.432 46.1682 134.028 45.5071C135.63 44.8461 137.088 43.8808 138.414 42.6231L137.106 39.6045C134.778 42.1843 132.102 43.4713 129.066 43.4713ZM121.026 35.685C121.026 34.2342 121.374 32.9121 122.064 31.7187C122.76 30.5195 123.708 29.5659 124.902 28.8581C126.096 28.1502 127.416 27.7992 128.874 27.7992C130.332 27.7992 131.55 28.1268 132.648 28.7878C133.746 29.4489 134.52 30.3498 134.976 31.4789L121.026 35.8722V35.685Z" fill="#F9F9F9"/>
<path d="M90.0299 30.1567C89.0279 28.4895 87.6659 27.1733 85.9379 26.2139C84.2099 25.2545 82.2959 24.7747 80.2019 24.7747C78.1079 24.7747 76.1879 25.2545 74.4599 26.2139C72.7319 27.1733 71.3699 28.4895 70.3679 30.1567C69.3659 31.8298 68.8679 33.6492 68.8679 35.6382C68.8679 37.6272 69.3659 39.4465 70.3679 41.1138C71.3699 42.781 72.7319 44.0973 74.4599 45.0567C76.1879 46.0161 78.1019 46.4958 80.2019 46.4958C82.3019 46.4958 84.2099 46.0161 85.9379 45.0567C87.6659 44.0973 89.0279 42.781 90.0299 41.1138C91.0319 39.4465 91.5299 37.6213 91.5299 35.6382C91.5299 33.655 91.0319 31.8298 90.0299 30.1567ZM74.6099 41.1898C74.5259 40.9559 74.4779 40.6984 74.4779 40.4293V30.5136C74.4779 30.4083 74.4839 30.303 74.5019 30.1977C74.6879 28.782 76.1519 27.8928 77.5139 28.2847C77.6939 28.3315 77.8739 28.4018 78.0479 28.5012L86.8559 33.462C87.5519 33.8481 87.9359 34.4974 88.0259 35.1761C88.0259 35.2053 88.0259 35.2345 88.0259 35.2638C88.0379 35.3515 88.0379 35.4393 88.0319 35.527C88.0199 36.2934 87.6239 37.0422 86.8499 37.4809L78.0419 42.4359C77.6699 42.6465 77.2799 42.7459 76.8959 42.7518C75.8879 42.7694 74.9399 42.1434 74.6039 41.1898H74.6099Z" fill="#F9F9F9"/>
<path d="M38.292 22.5049H34.542L38.4 16.4443H44.232L38.292 22.5049Z" fill="#F9F9F9"/>
</svg>
